<?xml version="1.0" standalone="no"?>
<!DOCTYPE svg PUBLIC "-//W3C//DTD SVG 20010904//EN"
 "http://www.w3.org/TR/2001/REC-SVG-20010904/DTD/svg10.dtd">
<svg version="1.0" xmlns="http://www.w3.org/2000/svg"
 width="486.000000pt" height="486.000000pt" viewBox="0 0 486.000000 486.000000"
 preserveAspectRatio="xMidYMid meet">
<metadata>
Created by potrace 1.14, written by Peter Selinger 2001-2017
</metadata>
<g transform="translate(0.000000,486.000000) scale(0.100000,-0.100000)"
fill="#000000" stroke="none">
<path d="M1100 4849 c0 -5 -4 -7 -10 -4 -5 3 -10 3 -10 -2 0 -4 -13 -14 -29
-21 -16 -7 -41 -23 -57 -37 -15 -13 -32 -21 -37 -18 -6 3 -7 1 -3 -5 4 -6 0
-22 -8 -34 -12 -19 -13 -26 -1 -41 15 -21 25 -21 43 2 11 15 12 15 6 0 -3 -11
2 -18 15 -22 12 -3 19 -1 15 4 -3 5 0 9 5 9 6 0 11 -6 11 -12 0 -9 3 -9 8 -3
4 6 16 10 27 10 11 0 37 5 58 12 20 7 37 10 37 6 0 -3 6 0 14 6 17 14 63 -19
52 -38 -4 -6 -12 -9 -17 -6 -5 3 -6 0 -4 -8 3 -7 -6 -39 -20 -70 -14 -32 -25
-69 -25 -83 0 -20 -4 -24 -19 -19 -27 8 -51 -4 -51 -27 0 -14 5 -18 15 -14 8
3 15 1 15 -4 0 -6 -6 -10 -14 -10 -8 0 -17 -8 -19 -17 -4 -14 -5 -12 -6 5 -1
21 -21 33 -21 12 0 -6 -6 -9 -12 -8 -7 2 -12 -3 -10 -9 1 -7 -4 -13 -12 -13
-7 0 -16 -10 -19 -22 -8 -28 -3 -33 14 -16 8 7 23 20 34 28 19 14 20 14 2 -6
-9 -11 -14 -24 -10 -28 5 -4 8 -11 8 -14 1 -4 9 -22 19 -40 9 -19 15 -40 12
-48 -3 -8 -2 -13 3 -9 5 3 15 -8 22 -24 7 -16 17 -27 21 -25 4 3 8 1 8 -5 0
-5 -4 -13 -10 -16 -5 -3 -10 -24 -10 -46 0 -21 -4 -39 -10 -39 -5 0 -10 5 -10
11 0 6 -6 9 -14 6 -8 -3 -17 1 -21 10 -4 12 -9 13 -16 6 -8 -8 -6 -18 6 -37
20 -30 12 -46 -50 -98 -20 -18 -41 -43 -46 -55 -5 -13 -19 -27 -32 -32 -12 -5
-44 -32 -70 -61 -26 -29 -63 -63 -81 -75 -37 -25 -105 -95 -106 -108 0 -5 7
-15 15 -23 19 -20 19 -38 0 -30 -10 4 -28 -17 -60 -72 -24 -42 -46 -81 -48
-86 -2 -5 -12 -4 -24 2 -18 10 -21 7 -33 -31 -34 -109 -53 -163 -63 -182 -6
-11 -10 -26 -8 -33 2 -10 -2 -11 -15 -4 -12 7 -22 6 -31 -3 -16 -16 -17 -45
-2 -45 5 0 7 -4 4 -10 -3 -5 -15 -10 -26 -10 -13 0 -18 -4 -13 -11 5 -8 -1
-10 -18 -7 -27 5 -41 -7 -46 -37 -2 -11 -7 -23 -10 -27 -4 -4 -48 1 -97 12
-50 10 -94 19 -100 20 -27 6 -43 -1 -40 -17 2 -10 4 -26 4 -35 1 -10 14 -21
33 -27 131 -40 198 -68 198 -81 0 -5 -5 -21 -10 -35 -9 -24 -7 -28 18 -37 23
-9 27 -16 24 -39 -3 -23 -8 -27 -31 -23 -25 3 -25 3 -4 -8 36 -17 29 -55 -9
-49 -4 0 -4 -7 -1 -16 5 -13 2 -15 -12 -9 -39 14 -105 19 -105 7 0 -6 7 -14
15 -17 12 -5 13 -10 4 -20 -6 -8 -17 -14 -25 -14 -7 0 -20 -10 -28 -22 -18
-25 -22 -78 -6 -78 6 0 15 -11 22 -25 6 -13 16 -22 21 -18 15 9 68 9 74 0 3
-4 -1 -15 -8 -23 -10 -13 -10 -17 2 -25 8 -5 16 -9 19 -9 11 0 10 -234 0 -240
-8 -5 -7 -16 0 -36 6 -16 13 -53 16 -82 2 -28 5 -55 6 -60 1 -4 -2 -19 -6 -35
-10 -34 1 -112 17 -129 7 -7 25 -62 40 -123 15 -60 30 -119 33 -130 3 -11 7
-31 9 -45 1 -14 12 -44 24 -65 25 -47 26 -64 6 -71 -12 -5 -9 -14 14 -47 25
-37 48 -123 30 -111 -13 7 -59 -18 -52 -29 4 -6 1 -7 -6 -2 -8 4 -21 -1 -32
-14 -11 -12 -24 -21 -29 -21 -6 0 -10 -4 -10 -8 0 -10 46 -10 56 0 4 5 15 8
25 8 10 0 28 10 39 23 12 12 20 18 19 12 -4 -14 11 -55 19 -55 20 1 34 19 27
39 -8 25 10 29 19 4 3 -10 8 -23 11 -29 3 -6 -10 -19 -29 -29 -19 -10 -33 -22
-30 -26 2 -4 -4 -6 -14 -5 -9 0 -16 -5 -14 -12 1 -8 -2 -11 -7 -8 -9 6 -77
-51 -69 -59 2 -2 16 2 31 10 15 8 25 10 22 5 -3 -6 1 -7 9 -4 9 3 13 11 9 17
-3 6 -1 7 5 3 15 -9 54 12 47 24 -4 6 1 7 11 3 13 -5 15 -3 9 7 -5 9 -4 11 3
6 6 -4 21 -2 32 4 19 10 22 7 19 -16 0 -3 6 -15 14 -28 14 -20 13 -48 -3 -111
-10 -39 22 -52 60 -25 27 19 28 19 44 1 16 -18 15 -20 -30 -50 -26 -17 -50
-31 -54 -31 -3 0 -11 -13 -17 -30 -9 -25 -8 -33 8 -54 12 -16 26 -23 35 -19 9
3 20 0 25 -8 7 -12 9 -12 9 0 0 22 94 100 106 88 9 -8 -6 -47 -17 -47 -19 0
-72 -71 -104 -137 -16 -35 -22 -89 -6 -65 7 11 10 10 15 -3 3 -9 4 -21 0 -26
-3 -5 3 -12 13 -15 10 -3 26 -10 35 -15 14 -7 32 3 85 48 38 31 72 62 76 67 5
7 7 2 4 -12 -3 -12 -1 -22 4 -22 5 0 9 -7 9 -16 0 -9 5 -12 11 -8 9 5 10 -1 5
-20 l-7 -27 29 29 c26 26 30 28 62 17 25 -8 35 -18 36 -33 1 -12 -3 -22 -7
-22 -5 0 -15 -13 -24 -30 -11 -21 -12 -30 -4 -30 7 0 9 -3 6 -7 -4 -3 -2 -12
4 -19 7 -8 6 -14 -2 -20 -8 -4 -9 -3 -5 4 4 7 5 12 3 12 -3 0 -14 -18 -26 -40
-24 -45 -16 -52 19 -15 13 14 29 25 37 25 7 0 14 5 14 10 1 6 2 16 3 23 0 6 7
13 14 13 25 3 27 4 14 13 -10 6 -10 10 3 21 13 11 14 10 9 -5 -6 -14 -4 -16 7
-10 8 5 5 -2 -6 -14 -15 -17 -17 -26 -8 -39 5 -9 12 -15 15 -12 3 3 13 -1 22
-9 15 -13 20 -11 40 14 12 15 28 25 33 22 13 -8 5 -47 -8 -47 -5 0 -9 -9 -9
-20 0 -28 15 -25 40 9 l20 30 26 -24 c14 -13 39 -30 55 -37 16 -7 27 -19 24
-25 -4 -12 7 -17 27 -14 12 2 128 -65 123 -71 -3 -2 1 -5 8 -5 7 0 43 -14 80
-31 37 -18 69 -32 72 -32 2 0 29 -11 59 -25 30 -14 60 -25 65 -25 6 0 19 -4
29 -10 17 -10 166 -55 212 -64 14 -3 43 -10 65 -15 109 -27 272 -43 440 -44
162 -1 338 8 355 18 3 2 24 6 46 9 50 6 163 31 234 51 30 9 65 18 76 20 12 3
39 12 60 22 22 9 48 18 59 20 11 2 24 8 29 13 6 6 16 10 23 10 28 0 344 164
351 182 2 4 10 8 18 8 8 0 14 4 14 8 0 5 10 13 23 19 64 30 259 191 370 307
139 144 295 354 281 377 -4 7 -3 9 3 6 6 -4 16 0 23 8 7 8 9 15 5 15 -5 0 0 9
9 19 10 11 15 25 10 32 -4 7 -3 10 3 6 6 -4 18 11 28 33 10 22 22 40 27 40 4
0 7 3 6 8 -1 4 12 36 29 72 16 36 34 76 38 90 4 14 11 30 15 35 14 19 60 167
54 176 -3 5 -1 9 5 9 8 0 37 112 55 210 3 14 9 49 15 79 6 29 8 57 5 62 -3 5
-1 9 3 9 4 0 9 25 10 56 1 31 4 58 7 61 3 3 1 15 -5 26 -6 10 -7 17 -1 13 17
-10 4 395 -15 459 -4 11 -7 34 -9 50 -1 17 -4 41 -8 55 -3 14 -13 59 -22 100
-9 41 -21 81 -27 88 -5 6 -6 12 -2 12 4 0 2 7 -5 15 -7 8 -10 15 -7 15 6 0
-35 128 -52 165 -12 25 -47 107 -50 117 -6 20 -95 185 -107 199 -8 8 -14 19
-14 23 0 9 -123 190 -146 216 -33 37 -61 70 -83 99 -13 17 -28 28 -33 25 -4
-3 -7 -1 -6 4 8 24 -215 231 -342 318 -30 20 -57 40 -60 43 -22 26 -293 172
-400 214 -25 10 -60 25 -78 33 -18 8 -37 14 -42 14 -5 0 -21 5 -37 12 -15 6
-32 12 -38 13 -5 2 -30 8 -55 15 -59 16 -80 21 -107 25 -12 2 -26 6 -31 9 -7
4 -77 17 -172 32 -108 16 -383 22 -505 11 -122 -12 -213 -26 -320 -52 -38 -9
-83 -18 -100 -20 -16 -2 -45 -8 -64 -14 -28 -9 -38 -8 -52 5 -9 8 -23 14 -30
12 -8 -2 -35 39 -69 105 -35 70 -66 117 -85 130 -16 12 -31 25 -33 29 -2 4
-10 4 -18 1 -8 -3 -14 0 -14 6 0 6 -3 10 -7 10 -5 -1 -10 -1 -13 0 -3 1 -22 4
-44 6 -84 9 -87 44 -6 85 33 17 60 32 60 35 0 3 -99 5 -220 5 -148 0 -220 -3
-220 -11z m-130 -145 c0 -8 -19 -13 -24 -6 -3 5 1 9 9 9 8 0 15 -2 15 -3z m60
-9 c-7 -9 -15 -13 -17 -11 -7 7 7 26 19 26 6 0 6 -6 -2 -15z m203 -442 c-3 -7
-9 -13 -15 -13 -5 0 -6 -5 -2 -12 4 -7 3 -8 -5 -4 -6 4 -8 13 -4 19 8 12 9 18
12 40 1 9 4 8 10 -2 5 -8 7 -20 4 -28z m-67 -45 c12 -24 18 -28 25 -17 10 16
12 8 3 -15 -3 -9 -10 -13 -15 -10 -5 3 -9 0 -9 -5 0 -6 -7 -11 -17 -11 -14 0
-14 2 2 20 10 11 14 20 8 20 -8 0 -33 42 -33 56 0 13 22 -10 36 -38z m3209
-668 c-3 -5 -12 -10 -18 -10 -7 0 -6 4 3 10 19 12 23 12 15 0z m-4131 -889
c-2 -3 -12 3 -22 13 -16 17 -16 18 5 5 12 -7 20 -15 17 -18z m3906 -1925 c0
-3 -4 -8 -10 -11 -5 -3 -10 -1 -10 4 0 6 5 11 10 11 6 0 10 -2 10 -4z m-166
-165 c3 -5 -2 -15 -12 -22 -15 -12 -16 -12 -5 2 7 9 10 19 6 22 -3 4 -4 7 0 7
3 0 8 -4 11 -9z"/>
<path d="M1005 4280 c3 -5 8 -10 11 -10 2 0 4 5 4 10 0 6 -5 10 -11 10 -5 0
-7 -4 -4 -10z"/>
<path d="M1054 4255 c-10 -8 -14 -15 -8 -15 5 0 19 7 30 15 10 8 14 15 8 15
-5 0 -19 -7 -30 -15z"/>
<path d="M1019 4239 c5 -15 7 -29 5 -32 -3 -3 -1 -8 5 -11 13 -8 4 45 -10 59
-7 7 -7 1 0 -16z"/>
<path d="M1063 4204 c-14 -6 -5 -34 15 -50 11 -8 12 -13 4 -18 -7 -4 -12 -2
-12 4 0 6 -4 8 -10 5 -5 -3 -10 -1 -10 6 0 10 -3 10 -11 2 -17 -17 -3 -49 14
-34 10 8 17 7 27 -2 9 -8 11 -9 6 0 -3 6 -2 14 4 18 6 4 8 11 5 16 -4 5 1 9 9
9 9 0 16 4 16 10 0 5 -10 9 -22 7 -17 -1 -23 3 -22 16 1 9 1 17 0 16 0 0 -6
-3 -13 -5z"/>
</g>
</svg>
